<svg width="23" height="23" viewBox="0 0 23 23" fill="none" xmlns="http://www.w3.org/2000/svg">
<path d="M12.2156 23C11.7375 23 11.2595 23 10.7814 23C10.7237 22.9835 10.666 22.967 10.6083 22.967C9.38013 22.8764 8.19319 22.6126 7.07219 22.118C3.28882 20.4365 0.972632 17.5599 0.173096 13.488C0.0906691 13.0676 0.0576985 12.6472 0 12.2269C0 11.7488 0 11.2707 0 10.7926C0.0164853 10.7185 0.0329706 10.6443 0.0412132 10.5783C0.12364 10.0261 0.173096 9.46558 0.304978 8.92156C1.74744 2.73958 7.74808 -1.05204 13.9548 0.258544C19.0323 1.33833 22.8321 5.8553 22.9887 11.0482C23.0876 14.0979 22.148 16.7933 20.1285 19.093C18.3564 21.1124 16.1226 22.3571 13.4685 22.8351C13.0563 22.9011 12.636 22.9423 12.2156 23ZM1.78865 11.4933C1.78041 16.8427 6.11604 21.1866 11.4738 21.2113C16.8315 21.2278 21.1918 16.884 21.2001 11.518C21.2083 6.16028 16.8809 1.82465 11.515 1.79992C6.15726 1.77519 1.7969 6.11906 1.78865 11.4933Z" fill="#A0050A"/>
</svg>
