<svg width="45" height="52" viewBox="0 0 45 52" fill="none" xmlns="http://www.w3.org/2000/svg">
<path fill-rule="evenodd" clip-rule="evenodd" d="M0 5.53578C0 2.47845 2.47845 0 5.53578 0H31.3694C31.8588 0 32.3282 0.194411 32.6742 0.540465L43.7458 11.612C44.0919 11.9581 44.2863 12.4274 44.2863 12.9168V46.1315C44.2863 49.1889 41.8078 51.6673 38.7505 51.6673H5.53578C2.47845 51.6673 0 49.1889 0 46.1315V5.53578ZM5.53578 3.69052C4.51667 3.69052 3.69052 4.51667 3.69052 5.53578V46.1315C3.69052 47.1506 4.51667 47.9768 5.53578 47.9768H38.7505C39.7696 47.9768 40.5957 47.1506 40.5957 46.1315V13.6812L30.6051 3.69052H5.53578Z" fill="black"/>
</svg>
